<?xml version="1.0" standalone="no"?><!DOCTYPE svg PUBLIC "-//W3C//DTD SVG 1.1//EN" "http://www.w3.org/Graphics/SVG/1.1/DTD/svg11.dtd"><svg t="1618149137244" class="icon" viewBox="0 0 1024 1024" version="1.1" xmlns="http://www.w3.org/2000/svg" p-id="4121" xmlns:xlink="http://www.w3.org/1999/xlink" width="200" height="200"><defs><style type="text/css"></style></defs><path d="M128 896V128a128 128 0 0 1 128-128h42.666667a128 128 0 0 1 128 128v768a128 128 0 0 1-128 128H256a128 128 0 0 1-128-128z m597.333333 128h42.666667a128 128 0 0 0 128-128V128a128 128 0 0 0-128-128h-42.666667a128 128 0 0 0-128 128v768a128 128 0 0 0 128 128z" fill="#409EFF" p-id="4122" data-spm-anchor-id="a313x.7781069.0.i14" class="selected"></path><path d="M896 512v384a128 128 0 0 1-128 128h-42.666667a128 128 0 0 1-128-128v-384zM128 512v384a128 128 0 0 0 128 128h42.666667a128 128 0 0 0 128-128v-384z" fill="#3395FF" p-id="4123" data-spm-anchor-id="a313x.7781069.0.i15" class=""></path></svg>